<?xml version="1.0" encoding="UTF-8"?>
<!DOCTYPE svg PUBLIC "-//W3C//DTD SVG 1.1//EN" "http://www.w3.org/Graphics/SVG/1.1/DTD/svg11.dtd">
<!-- Creator: CorelDRAW 2020 (64-Bit) -->
<svg xmlns="http://www.w3.org/2000/svg" xml:space="preserve" width="103px" height="100px" version="1.1" style="shape-rendering:geometricPrecision; text-rendering:geometricPrecision; image-rendering:optimizeQuality; fill-rule:evenodd; clip-rule:evenodd"
viewBox="0 0 79.67 77.21"
 xmlns:xlink="http://www.w3.org/1999/xlink"
 xmlns:xodm="http://www.corel.com/coreldraw/odm/2003">
 <defs>
  <style type="text/css">
   <![CDATA[
    .fil0 {fill:#009933}
   ]]>
  </style>
 </defs>
 <g id="Capa_x0020_1">
  <metadata id="CorelCorpID_0Corel-Layer"/>
  <g id="_1957759857936">
   <path class="fil0" d="M67.47 12.97c0.31,0.39 0.51,0.88 0.51,1.42 0,1.23 -1,2.22 -2.23,2.22 -0.69,0 -1.31,-0.31 -1.71,-0.8l-0.01 -0.01c-6.25,-6.97 -15.32,-11.35 -25.42,-11.35 -18.87,0 -34.16,15.29 -34.16,34.16 0,18.86 15.29,34.15 34.16,34.15 18.86,0 34.15,-15.29 34.15,-34.15 0,-3.99 -0.68,-7.82 -1.94,-11.38l0.01 0c-0.05,-0.18 -0.08,-0.37 -0.08,-0.57 0,-1.23 1,-2.23 2.23,-2.23 1.01,0 1.86,0.67 2.13,1.59 1.36,3.95 2.1,8.18 2.1,12.59 0,21.32 -17.28,38.6 -38.6,38.6 -21.33,0 -38.61,-17.28 -38.61,-38.6 0,-21.33 17.28,-38.61 38.61,-38.61 11.48,0 21.79,5.01 28.86,12.97l0 0z"/>
   <path class="fil0" d="M79.07 6.86c1.48,2.08 0.11,3.4 -2.86,5.52 -13.46,8.4 -24.41,20.77 -32.86,37.1 -2.67,5.19 -8.08,4.27 -11.14,0.1 -7.65,-10.61 -11.47,-15.92 -11.47,-15.92 -1.74,-2.21 -1.58,-4.25 0.48,-6.12 1.98,-1.05 4,-0.59 6.05,1.39 5.65,4.82 8.19,6.99 8.19,6.99 1.25,0.77 1.74,-0.03 2.79,-1.22 12.27,-14.66 24.18,-24.07 35.74,-28.23 2.69,-0.85 4.27,-0.88 5.08,0.39z"/>
  </g>
 </g>
</svg>
