<?xml version="1.0" encoding="UTF-8"?>
<!DOCTYPE svg PUBLIC "-//W3C//DTD SVG 1.1//EN" "http://www.w3.org/Graphics/SVG/1.1/DTD/svg11.dtd">
<!-- Creator: CorelDRAW 2020 (64-Bit) -->
<svg xmlns="http://www.w3.org/2000/svg" xml:space="preserve" width="166px" height="166px" version="1.1" style="shape-rendering:geometricPrecision; text-rendering:geometricPrecision; image-rendering:optimizeQuality; fill-rule:evenodd; clip-rule:evenodd"
viewBox="0 0 5.59 5.59"
 xmlns:xlink="http://www.w3.org/1999/xlink"
 xmlns:xodm="http://www.corel.com/coreldraw/odm/2003">
 <defs>
  <style type="text/css">
   <![CDATA[
    .fil0 {fill:none}
    .fil1 {fill:#0B094A}
   ]]>
  </style>
 </defs>
 <g id="Capa_x0020_1">
  <metadata id="CorelCorpID_0Corel-Layer"/>
  <g id="_1938195341920">
   <circle class="fil0" cx="2.79" cy="2.79" r="2.79"/>
   <path class="fil1" d="M2.65 4.43l-1.92 -1.93c-0.08,-0.07 -0.08,-0.2 0,-0.28l0.39 -0.39c0.08,-0.08 0.2,-0.08 0.28,0l1.39 1.39 1.39 -1.39c0.08,-0.08 0.21,-0.08 0.29,0l0.39 0.39c0.08,0.08 0.08,0.21 0,0.28l-1.93 1.93 0 0 0 0.01 -0.01 0 0 0 0 0 -0.01 0.01 0 0 0 0 0 0 -0.01 0.01 0 0 -0.01 0 0 0 0 0.01 0 0 -0.01 0 0 0 0 0 -0.01 0 0 0 0 0 0 0 -0.01 0.01 0 0 0 0 -0.01 0 0 0 -0.01 0 0 0 0 0 0 0 0 0 0 0 -0.01 0 0 0 0 0.01 0 0 -0.01 0 0 0 0 0 -0.01 0 0 0 -0.01 0 0 0 0 0 0 0 -0.01 0 0 0 0 0 0 0 -0.01 0 0 0 0 0 -0.01 0 0 0 0 0 -0.01 0 0 0 0 0 -0.01 -0.01 0 0 0 0 0 0 0 0 0 0 -0.01 0 0 0 0 0 -0.01 0 0 0 -0.01 0 0 0 0 -0.01 0 0 -0.01 0 0 0 0 0 -0.01 0 0 0 0 0 0 0 0 -0.01 -0.01 0 0 0 -0.01 0 0 -0.01 0 0 -0.01 0 0 0 0 -0.01 0 0 -0.01 0 0 0 0 -0.01 -0.01 0z"/>
  </g>
 </g>
</svg>
