<?xml version="1.0" encoding="UTF-8"?>
<!DOCTYPE svg PUBLIC "-//W3C//DTD SVG 1.1//EN" "http://www.w3.org/Graphics/SVG/1.1/DTD/svg11.dtd">
<!-- Creator: CorelDRAW 2020 (64-Bit) -->
<svg xmlns="http://www.w3.org/2000/svg" xml:space="preserve" width="103px" height="100px" version="1.1" style="shape-rendering:geometricPrecision; text-rendering:geometricPrecision; image-rendering:optimizeQuality; fill-rule:evenodd; clip-rule:evenodd"
viewBox="0 0 24 23.34"
 xmlns:xlink="http://www.w3.org/1999/xlink"
 xmlns:xodm="http://www.corel.com/coreldraw/odm/2003">
 <defs>
  <style type="text/css">
   <![CDATA[
    .fil0 {fill:#B51A1A}
   ]]>
  </style>
 </defs>
 <g id="Capa_x0020_1">
  <metadata id="CorelCorpID_0Corel-Layer"/>
  <path class="fil0" d="M20.39 3.92c0.1,0.12 0.16,0.27 0.16,0.43 0,0.37 -0.31,0.67 -0.68,0.67 -0.21,0 -0.39,-0.09 -0.52,-0.24l0 0c-1.89,-2.11 -4.63,-3.44 -7.68,-3.44 -5.7,0 -10.33,4.63 -10.33,10.33 0,5.7 4.63,10.32 10.33,10.32 5.7,0 10.32,-4.62 10.32,-10.32 0,-1.21 -0.21,-2.36 -0.58,-3.44l0 0c-0.02,-0.05 -0.02,-0.11 -0.02,-0.17 0,-0.37 0.3,-0.67 0.67,-0.67 0.3,0 0.56,0.2 0.64,0.47 0.41,1.2 0.64,2.48 0.64,3.81 0,6.44 -5.23,11.67 -11.67,11.67 -6.45,0 -11.67,-5.23 -11.67,-11.67 0,-6.45 5.22,-11.67 11.67,-11.67 3.47,0 6.58,1.52 8.72,3.92l0 0z"/>
  <path class="fil0" d="M16.23 13.19c-0.88,-1.08 -1.98,-2.27 -2.04,-2.34 -0.09,-0.12 0,-0.28 0.1,-0.4 2.64,-2.52 5.62,-4.66 8.95,-6.41 0.66,-0.29 0.9,-0.71 0.69,-1.26 -0.68,-2.74 -10.6,5.1 -11.55,5.92 -0.27,0.17 -0.56,0.15 -0.87,-0.04 -1.31,-1 -2.32,-1.61 -3,-1.85 -0.41,-0.17 -0.78,-0.02 -1.09,0.46 -0.18,0.38 -0.13,0.71 0.14,0.99 1.64,1.27 2.45,1.91 2.45,1.91 0.2,0.21 0.21,0.41 0.02,0.58 -1.87,1.89 -2.97,3.27 -3.27,4.14 -0.44,1.24 1.6,2.66 2.3,1.83 1.18,-1.38 2.18,-2.61 3,-3.71 0.17,-0.21 0.31,-0.29 0.42,-0.24 0.3,0.1 1.1,1.36 2.39,3.78 0.43,0.66 1.12,0.76 2.06,0.33 1.52,-0.96 0.04,-2.77 -0.7,-3.69z"/>
 </g>
</svg>
