<?xml version="1.0" encoding="UTF-8"?>
<!DOCTYPE svg PUBLIC "-//W3C//DTD SVG 1.1//EN" "http://www.w3.org/Graphics/SVG/1.1/DTD/svg11.dtd">
<!-- Creator: CorelDRAW 2020 (64-Bit) -->
<svg xmlns="http://www.w3.org/2000/svg" xml:space="preserve" width="103px" height="100px" version="1.1" style="shape-rendering:geometricPrecision; text-rendering:geometricPrecision; image-rendering:optimizeQuality; fill-rule:evenodd; clip-rule:evenodd"
viewBox="0 0 10.77 10.48"
 xmlns:xlink="http://www.w3.org/1999/xlink"
 xmlns:xodm="http://www.corel.com/coreldraw/odm/2003">
 <defs>
  <style type="text/css">
   <![CDATA[
    .fil0 {fill:#003399;fill-rule:nonzero}
   ]]>
  </style>
 </defs>
 <g id="Capa_x0020_1">
  <metadata id="CorelCorpID_0Corel-Layer"/>
  <path class="fil0" d="M1.22 3.59l1.82 2.76 0 -2.78c0,-0.18 0.04,-0.32 0.12,-0.41 0.07,-0.09 0.18,-0.13 0.31,-0.13 0.13,0 0.24,0.04 0.32,0.13 0.08,0.09 0.12,0.23 0.12,0.41l0 3.67c0,0.41 -0.17,0.61 -0.51,0.61 -0.09,0 -0.16,-0.01 -0.23,-0.03 -0.07,-0.03 -0.13,-0.07 -0.19,-0.12 -0.06,-0.05 -0.12,-0.11 -0.17,-0.19 -0.05,-0.07 -0.1,-0.14 -0.15,-0.21l-1.77 -2.72 0 2.73c0,0.18 -0.04,0.31 -0.13,0.41 -0.08,0.09 -0.19,0.13 -0.32,0.13 -0.13,0 -0.24,-0.04 -0.32,-0.14 -0.08,-0.09 -0.12,-0.22 -0.12,-0.4l0 -3.6c0,-0.15 0.02,-0.27 0.05,-0.36 0.04,-0.09 0.11,-0.17 0.2,-0.23 0.1,-0.06 0.2,-0.09 0.3,-0.09 0.09,0 0.16,0.01 0.22,0.04 0.06,0.03 0.12,0.06 0.16,0.11 0.05,0.05 0.09,0.11 0.14,0.18 0.05,0.08 0.1,0.15 0.15,0.23zm5.31 -0.64l-1.26 5.19c-0.04,0.17 -0.08,0.3 -0.11,0.4 -0.03,0.1 -0.08,0.18 -0.15,0.23 -0.06,0.06 -0.15,0.09 -0.28,0.09 -0.3,0 -0.46,-0.14 -0.46,-0.4 0,-0.07 0.03,-0.24 0.09,-0.52l1.26 -5.18c0.07,-0.28 0.13,-0.47 0.19,-0.57 0.06,-0.1 0.18,-0.15 0.35,-0.15 0.15,0 0.27,0.03 0.34,0.11 0.08,0.07 0.12,0.17 0.12,0.29 0,0.1 -0.03,0.27 -0.09,0.51zm3.23 4.3l-0.22 -0.59 -1.9 0 -0.22 0.6c-0.09,0.23 -0.16,0.39 -0.23,0.47 -0.06,0.08 -0.16,0.12 -0.3,0.12 -0.12,0 -0.22,-0.04 -0.31,-0.13 -0.09,-0.08 -0.14,-0.18 -0.14,-0.29 0,-0.07 0.01,-0.13 0.03,-0.2 0.02,-0.07 0.06,-0.16 0.11,-0.28l1.19 -3.03c0.04,-0.09 0.08,-0.2 0.12,-0.32 0.05,-0.12 0.1,-0.22 0.16,-0.3 0.05,-0.08 0.12,-0.15 0.21,-0.2 0.09,-0.05 0.2,-0.07 0.33,-0.07 0.13,0 0.24,0.02 0.33,0.07 0.08,0.05 0.16,0.12 0.21,0.19 0.05,0.08 0.1,0.17 0.14,0.26 0.03,0.09 0.08,0.21 0.14,0.36l1.22 3.01c0.09,0.23 0.14,0.4 0.14,0.5 0,0.11 -0.04,0.21 -0.13,0.3 -0.09,0.09 -0.2,0.13 -0.33,0.13 -0.08,0 -0.14,-0.01 -0.19,-0.04 -0.05,-0.02 -0.1,-0.06 -0.14,-0.1 -0.03,-0.05 -0.07,-0.12 -0.11,-0.21 -0.04,-0.1 -0.08,-0.18 -0.11,-0.25zm-1.87 -1.3l1.39 0 -0.7 -1.92 -0.69 1.92z"/>
  <path class="fil0" d="M9 1.76c0.04,0.05 0.07,0.12 0.07,0.19 0,0.17 -0.14,0.3 -0.3,0.3 -0.1,0 -0.18,-0.04 -0.24,-0.11l0 0c-0.84,-0.94 -2.08,-1.54 -3.45,-1.54l0 -0.6c1.56,0 2.96,0.68 3.92,1.76l0 0zm-3.92 8.11c1.37,0 2.61,-0.59 3.45,-1.54 0.25,0.16 0.6,0.25 0.42,0.45 -0.96,1.04 -2.34,1.7 -3.87,1.7l0 -0.61z"/>
  <path class="fil0" d="M1.17 1.76c-0.05,0.05 -0.07,0.12 -0.07,0.19 0,0.17 0.13,0.3 0.3,0.3 0.09,0 0.18,-0.04 0.23,-0.11l0 0c0.85,-0.94 2.08,-1.54 3.45,-1.54l0 -0.6c-1.55,0 -2.95,0.68 -3.91,1.76l0 0zm3.91 8.11c-1.37,0 -2.6,-0.59 -3.45,-1.54 -0.24,0.16 -0.59,0.25 -0.41,0.45 0.96,1.04 2.33,1.7 3.86,1.7l0 -0.61z"/>
  <path class="fil0" d="M8.74 8.25c0.17,0 0.3,0.14 0.3,0.3 0,0.17 -0.13,0.31 -0.3,0.31 -0.17,0 -0.3,-0.14 -0.3,-0.31 0,-0.16 0.13,-0.3 0.3,-0.3z"/>
 </g>
</svg>
