<?xml version="1.0" encoding="UTF-8"?>
<!DOCTYPE svg PUBLIC "-//W3C//DTD SVG 1.1//EN" "http://www.w3.org/Graphics/SVG/1.1/DTD/svg11.dtd">
<!-- Creator: CorelDRAW 2020 (64-Bit) -->
<svg xmlns="http://www.w3.org/2000/svg" xml:space="preserve" width="184.92mm" height="185.825mm" version="1.1" style="shape-rendering:geometricPrecision; text-rendering:geometricPrecision; image-rendering:optimizeQuality; fill-rule:evenodd; clip-rule:evenodd"
viewBox="0 0 3418.37 3435.1"
 xmlns:xlink="http://www.w3.org/1999/xlink"
 xmlns:xodm="http://www.corel.com/coreldraw/odm/2003">
 <defs>
  <style type="text/css">
   <![CDATA[
    .fil0 {fill:#003399}
   ]]>
  </style>
 </defs>
 <g id="Capa_x0020_1">
  <metadata id="CorelCorpID_0Corel-Layer"/>
  <path class="fil0" d="M1719.35 947.89c-135.78,0 -106.49,-159.39 -106.49,-240.61 0,-75.6 19.21,-129.11 119.8,-129.11 75.21,0 93.09,69.77 93.18,123.23 0.07,45.1 20.4,120.39 -13.07,188.01 -14.55,29.4 -45.3,58.47 -93.42,58.47z"/>
  <path class="fil0" d="M1662.06 1442c0,-63.36 -3.37,-136.24 -0.02,-198.4l6.91 -92.28c9.58,-68.71 70.56,-54.8 88.33,-37.13 8.87,8.83 11.8,22.35 14.36,36.95 8.98,51.28 6.71,242.26 6.71,290.87 21.38,11.31 41.7,16.65 61.6,30.75 17.79,12.6 35.79,28.38 50.28,45.49 57.87,68.37 67.61,174.75 18.1,248.7 10.78,16.1 328.44,330.3 375.4,377.11l32.43 35.98c25.35,25.62 96.64,85.05 61.27,124.41 -7.62,8.47 -31.79,20.03 -48.38,20.03 -28.66,0 -482.9,-475.45 -492.55,-475.45 -10.9,0 -41.35,13.51 -54.27,17.56 -128.18,40.22 -271.4,-56.1 -277.59,-181.68 -3.35,-68.1 -6.2,-97.71 38.14,-156.96 44.32,-59.22 73.99,-62 119.27,-85.96z"/>
  <path class="fil0" d="M586.46 1711.53c0,-137.55 146.41,-107.23 251.65,-107.23 159.78,0 155.02,207.96 0.08,214.56 -63.35,5.1 -193.78,16.71 -232.06,-42.73 -12.34,-19.16 -19.67,-34.24 -19.67,-64.6z"/>
  <path class="fil0" d="M2484.67 1719.14c0,-146.56 136.09,-115.15 252.03,-115.15 138.63,0 139.53,139.27 80.83,195.02 -36.72,34.87 -262.88,27.98 -293.25,3.06 -15.44,-12.67 -39.61,-55.04 -39.61,-82.93z"/>
  <path class="fil0" d="M1610.51 2717.41c0,-50.02 -8.55,-172.08 21.93,-203.9 61.27,-63.95 197.21,-51.57 197.21,80.85 0,54.21 10.34,181.68 -21.95,215.59 -45.59,47.87 -129.62,47.67 -175.26,0.02 -17.89,-18.68 -21.93,-59.42 -21.93,-92.57z"/>
  <path class="fil0" d="M198.83 1648.57c8.37,-159.06 51.57,-358.5 106.21,-495.11 49.54,-123.85 112.94,-232.11 185.96,-335.63 13.94,-19.76 17.49,-23.92 32.84,-43.14 72.38,-90.63 98.9,-113.91 183.53,-193.1 60.04,-56.18 161,-127.73 232.31,-170.4 42.91,-25.68 99.56,-53.73 146.59,-77.28 85.14,-42.64 187.48,-72.23 280.85,-95.55 145.84,-36.43 217.19,-39.41 385.23,-39.41 107.73,0 198.01,16.7 299.15,36.71 108.34,21.44 215.71,58.84 311.23,106.76 17.42,8.74 51.08,24.51 69.24,34.63 54.07,30.13 82.33,48.08 134.13,82.25l29.81 20.99c-27.09,0 -212.16,-2.49 -224.15,2.26 -52.82,20.91 -39.32,111.19 -1.68,111.19l523.34 0 0 -511.25c0,-61.91 -113.12,-62.18 -113.12,8.19l-12.29 270.09c-57.9,-45.58 -120.83,-87.4 -185.37,-124.84 -140.27,-84.9 -335.36,-163.43 -501.78,-196.21 -105.62,-20.8 -211.79,-36.1 -308.75,-39.71l-124.72 0.06c-162.45,6.21 -325.71,37.93 -499.17,96.87 -97.74,33.21 -206.85,87.58 -296.96,136.31l-145.49 95.99c-135.58,101.69 -150.11,124.14 -268,241.44l-89.48 108.63c-29.5,36.22 -54.73,76.54 -80.42,115.23 -30.65,46.15 -51.21,86.85 -76.95,132.82l-34.18 69.31c-11.4,22.6 -19.36,43 -29.42,66.95 -10.89,25.93 -19.95,49.89 -29.1,75.33 -56.3,156.63 -98.22,358.59 -98.22,528.69 -1.22,150.85 190.98,130.14 198.83,-19.07z"/>
  <path class="fil0" d="M1607.33 1650.65c0,32.89 12.56,62.83 28.24,81.21 61.46,72.02 197.51,27.37 197.51,-70.95 0,-97.17 -106.69,-158.03 -190.21,-87.59 -18.68,15.75 -35.54,53.43 -35.54,77.33z"/>
  <path class="fil0" d="M3283.37 1773.79c0,38.04 38.81,82.42 90.56,42.68 14.34,-11.01 21.01,-23.61 22.31,-36.07l0 -9.36c-2.94,-28.77 -32.14,-54.39 -58.11,-54.72 -28.08,-0.36 -54.77,27.37 -54.77,57.48z"/>
  <circle class="fil0" cx="109.2" cy="1928.09" r="97.05"/>
  <circle class="fil0" cx="160.67" cy="2177.03" r="97.05"/>
  <circle class="fil0" cx="252.51" cy="2415.39" r="97.05"/>
  <circle class="fil0" cx="382.94" cy="2641.03" r="97.05"/>
  <circle class="fil0" cx="539.77" cy="2837.42" r="97.05"/>
  <circle class="fil0" cx="726.94" cy="3003.18" r="97.05"/>
  <circle class="fil0" cx="938.01" cy="3142.19" r="97.05"/>
  <circle class="fil0" cx="1178.76" cy="3249.9" r="97.05"/>
  <circle class="fil0" cx="1441.99" cy="3316.2" r="97.05"/>
  <circle class="fil0" cx="1709.26" cy="3338.05" r="97.05"/>
  <circle class="fil0" cx="1976.75" cy="3316.2" r="97.05"/>
  <circle class="fil0" cx="2242.82" cy="3247.84" r="97.05"/>
  <circle class="fil0" cx="2487.48" cy="3137.51" r="97.05"/>
  <circle class="fil0" cx="2690.73" cy="3004.9" r="97.05"/>
  <circle class="fil0" cx="2879.96" cy="2833.39" r="97.05"/>
  <circle class="fil0" cx="3021.68" cy="2662.64" r="97.05"/>
  <circle class="fil0" cx="3154.35" cy="2442.27" r="97.05"/>
  <circle class="fil0" cx="3245.58" cy="2221.05" r="97.05"/>
  <circle class="fil0" cx="3301.77" cy="1984.31" r="97.05"/>
  <circle class="fil0" cx="3321.32" cy="1753.85" r="97.05"/>
 </g>
</svg>
