<?xml version="1.0" encoding="UTF-8"?>
<!DOCTYPE svg PUBLIC "-//W3C//DTD SVG 1.1//EN" "http://www.w3.org/Graphics/SVG/1.1/DTD/svg11.dtd">
<!-- Creator: CorelDRAW 2020 (64-Bit) -->
<svg xmlns="http://www.w3.org/2000/svg" xml:space="preserve" width="110.682mm" height="104.406mm" version="1.1" style="shape-rendering:geometricPrecision; text-rendering:geometricPrecision; image-rendering:optimizeQuality; fill-rule:evenodd; clip-rule:evenodd"
viewBox="0 0 2066.72 1949.52"
 xmlns:xlink="http://www.w3.org/1999/xlink"
 xmlns:xodm="http://www.corel.com/coreldraw/odm/2003">
 <defs>
  <style type="text/css">
   <![CDATA[
    .fil0 {fill:#003398}
   ]]>
  </style>
 </defs>
 <g id="Capa_x0020_1">
  <metadata id="CorelCorpID_0Corel-Layer"/>
  <path class="fil0" d="M932.67 447.85l0.01 55.54 0.26 26.7c-78.46,18.36 -112.3,47.28 -130.89,53.34 -27.94,-23.79 -58.2,-64.82 -87.83,-80.12 -45.23,-23.35 -98.66,-7.69 -125.62,19.61 -26.77,27.11 -42.88,78.54 -20.13,124.52 15.16,30.65 56.55,60.42 80.55,88.93l-30.5 61.51c-12.39,28.37 -17.16,54.52 -23.1,68.57 -10.99,3.49 -57.44,0.87 -73.19,0.85 -32.86,-0.04 -38.7,0.34 -63.71,12.58 -8.59,4.21 -15.22,11 -21.73,16.37 -38.85,31.98 -48,104.84 -10.26,147.68 56.91,64.59 130.98,27.75 168.9,39.8 5.81,13.73 10.93,40.46 23.1,68.54 4.81,11.1 9.18,20.79 14.58,31.25 3.56,6.88 14.29,24.57 15.92,30.29 -22.27,26.46 -67.69,60.94 -79.8,88.08 -46.3,103.78 58.15,187.9 143.94,145.51 20.01,-9.89 33.28,-25.26 45.82,-37.92 13.25,-13.38 29.23,-31.11 43.07,-42.72l61.47 30.61c17.98,7.74 66.85,22.05 69.24,23.53 -0.37,23.03 17.43,141.25 23.03,151.42 34.08,61.89 145.17,55.21 182.25,-19.34 19.56,-39.33 5.52,-88.69 10.9,-132.89 78.86,-18.66 112.48,-47.45 130.56,-53.34 26.26,22.35 60.92,67.37 87.92,80.06 91.74,43.13 189.01,-43.41 145.55,-143.97 -11.8,-27.31 -58.21,-62.56 -80.42,-89.04l30.52 -61.5c11.84,-27.76 17.73,-55.95 23.07,-68.58 26.02,-8.27 92.14,10.78 136.69,-13.54 75.15,-41.02 76.92,-146.22 0.75,-189.42 -45.16,-25.62 -110.71,-5.83 -137.44,-14.32 -4.41,-10.44 -6.81,-23.97 -10.62,-35.21 -3.99,-11.79 -7.73,-22.11 -12.49,-33.32l-30.47 -61.55c23.64,-28.32 64.49,-57.52 79.99,-87.87 44.47,-87.07 -43.66,-191.47 -143.87,-145.45 -28.95,13.29 -64.21,59.35 -89.17,80.38 -18.27,-5.96 -51.31,-34.51 -130.56,-53.34 -4.87,-40.02 6.48,-84.52 -6.92,-122.66 -29.74,-84.62 -149.95,-99.04 -196.36,-14.36 -8.86,16.17 -11.51,33.92 -12.99,54.78zm-816.35 217.59l-116.32 0.05c2.84,8.51 18.35,32.37 23.47,41.6 17.85,32.16 54.61,96.89 71.46,123.09 16.24,25.23 52.38,92.17 70.85,123.51 4.28,7.27 7.34,12.37 11.7,19.86 3.93,6.74 7.47,15.43 12.96,20.49 6.34,-13.47 15.54,-27.12 22.89,-40.1l142.3 -246.6c3.95,-6.98 7.82,-13.48 11.55,-20.07 4.05,-7.16 8.9,-14.1 12,-22.02l-93.58 0.24c23.72,-68.73 89.51,-170.4 137.86,-223.84l19.28 -21.92c25.9,-31.21 96.67,-90.64 129.15,-112.65 149.82,-101.54 308.59,-153.75 497.32,-147.94 140.42,4.32 261.87,43.31 376.73,107.27 61.41,34.2 131.48,89.26 181.55,140.93 6.89,7.11 11.86,13.97 18.81,20.74 11.17,10.86 45.53,54.51 54.62,67.08 22.32,30.9 42.19,62.38 62.14,99.07 8.85,16.29 18.45,36.6 26.15,54.53 4.28,9.97 8.28,19.33 12.08,29.11 3.51,9.02 7.15,21.11 11.27,29.46 25.06,106.23 184.8,116.74 165.08,-0.01 -0.2,-11.37 -18.81,-61.43 -23.77,-74.62 -12.05,-32.02 -30.63,-74.53 -46.63,-105.12 -5.93,-11.35 -12.33,-21.54 -18.36,-32.32 -41.84,-74.8 -80.89,-125.88 -138.95,-189.82 -4.1,-4.52 -8.66,-7.92 -12.91,-12.39l-78.95 -72.8c-146.02,-118.29 -338.31,-210.51 -589.03,-219.66 -262.16,-9.56 -514.48,98.4 -669.26,240.23 -5.19,4.76 -7.32,5.62 -13.47,11.79l-25.93 24.7c-22.94,22.38 -40.38,40.11 -61.37,65.16 -49.23,58.73 -84.29,108.83 -122.5,181.02 -20.55,38.82 -48,97.93 -60.19,141.96zm1259.99 1225.59c35.91,-12.1 68.49,-31.71 104.18,-47.01 13.13,-5.63 111.42,-63.84 124.56,-73.8 19.43,-14.74 38.42,-27.55 56.5,-43.1 8.35,-7.18 46.69,-39.72 53.52,-47.7 12.26,-14.34 28.01,-26.84 37.09,-37.17l34.95 -39.36c23.08,-25.19 91.66,-121.96 102.58,-148.76l48.9 -100.46c6.25,-6.38 33.2,-85.13 36.19,-99.31l91.94 -0.02c-0.9,-5.1 -40.35,-71.55 -46.04,-81.31l-94.72 -164.55c-7.33,-13.24 -42.61,-71.73 -46.89,-82.81 -5.28,4.02 -66.89,112.91 -71.91,121.83l-118.94 206.55 119.19 -0.08c-2.12,18.67 -39.62,93.54 -50.08,111.98 -20.52,36.18 -41.44,70.52 -64.43,100.02 -6.53,8.38 -11.47,14.54 -18.24,22.86l-79.38 85.02c-4.25,3.53 -6.27,6.02 -10.55,9.97l-33.65 28.07c-7.36,6.26 -15.14,12.25 -23.05,18.05 -217.17,159.38 -500.27,211.01 -771.95,110.48 -99.33,-36.76 -161.25,-78.6 -233.51,-134.86 -8.27,-6.43 -14.6,-12.7 -22.29,-18.84l-42.32 -39.85c-7.63,-7.39 -12.49,-13.91 -19.59,-21.62 -7.47,-8.12 -12.31,-13.08 -19.4,-21.58 -58.86,-70.61 -104.74,-143.74 -138.73,-231.34 -3.5,-9.03 -7.26,-21.33 -11.27,-29.46 -53.58,-141.18 -187.91,-125.02 -165.05,0.01 0.6,28.09 55.14,150.86 71.46,181.82 36.79,69.79 100.51,163.2 158.5,222.53l56.24 54.38c3.31,3.15 6.35,4.67 9.7,7.74 28.43,26.09 74.73,60.98 108.64,82.66 13.52,8.65 25.9,16.24 39.9,24.85 175.43,107.88 409.03,152.47 622.52,124.52 36.89,-4.83 72.99,-11.78 107.46,-20.5 34.96,-8.84 65.36,-19.83 97.97,-29.84zm-363.71 -1182.05c-55.38,7.21 -100.97,25.7 -140.87,59.18 -97.34,81.68 -130.58,218.92 -65.16,336.84 15.28,27.55 40.06,57.1 60.47,73.77 84.33,68.86 197.16,87.9 303.24,30.18 14.72,-8.01 46.97,-30.38 57.05,-42.61 3.76,-4.57 4.65,-4.52 8.74,-8.57 3.12,-3.09 4.84,-6.18 7.88,-9.55 69.31,-76.89 87.59,-202.57 30.96,-302.89 -51.86,-91.87 -156.26,-150.16 -262.31,-136.36z"/>
 </g>
</svg>
