<?xml version="1.0" encoding="UTF-8"?>
<!DOCTYPE svg PUBLIC "-//W3C//DTD SVG 1.1//EN" "http://www.w3.org/Graphics/SVG/1.1/DTD/svg11.dtd">
<!-- Creator: CorelDRAW 2020 (64-Bit) -->
<svg xmlns="http://www.w3.org/2000/svg" xml:space="preserve" width="166px" height="166px" version="1.1" style="shape-rendering:geometricPrecision; text-rendering:geometricPrecision; image-rendering:optimizeQuality; fill-rule:evenodd; clip-rule:evenodd"
viewBox="0 0 4.75 4.75"
 xmlns:xlink="http://www.w3.org/1999/xlink"
 xmlns:xodm="http://www.corel.com/coreldraw/odm/2003">
 <defs>
  <style type="text/css">
   <![CDATA[
    .fil0 {fill:none}
    .fil1 {fill:#0B094A}
   ]]>
  </style>
 </defs>
 <g id="Capa_x0020_1">
  <metadata id="CorelCorpID_0Corel-Layer"/>
  <g id="_1937681721536">
   <circle class="fil0" cx="2.38" cy="2.38" r="2.38"/>
   <path class="fil1" d="M2.26 0.98l-1.64 1.64c-0.07,0.07 -0.07,0.17 0,0.24l0.33 0.34c0.07,0.06 0.18,0.06 0.24,0l1.19 -1.19 1.18 1.19c0.06,0.06 0.17,0.06 0.24,0l0.33 -0.34c0.07,-0.07 0.07,-0.17 0,-0.24l-1.64 -1.64 0 0 0 0 0 -0.01 -0.01 0 0 0 0 0 0 0 -0.01 -0.01 0 0 0 0 -0.01 0 0 0 0 -0.01 -0.01 0 0 0 0 0 0 0 0 0 -0.01 0 0 0 0 0 0 0 0 -0.01 0 0 -0.01 0 0 0 -0.01 0 0 0 0 0 0 0 0 0 -0.01 0 0 0 0 0 0 0 -0.01 0 0 0 0 -0.01 0 0 0 0 -0.01 0 0 0 -0.01 0 0 0 0 0 0 0 0 0 0 0 -0.01 0 0 0 0 0 0 0 -0.01 0 0 0 -0.01 0 0 0 0 0 0 0.01 0 0 -0.01 0 0 0 0 0 0 0 -0.01 0 0 0 0 0 0 0 0 0 -0.01 0 0 0 0 0 0 0 -0.01 0.01 0 0 0 0 0 0 -0.01 0 0 0 0 0 0 0 0 0 -0.01 0 0 0.01 0 0 -0.01 0 0 0 0 0 -0.01 0.01 0 0 0 0 0 0 -0.01 0 0 0.01 0 0 0 0z"/>
  </g>
 </g>
</svg>
